<svg width="31" height="39" viewBox="0 0 31 39" fill="none" xmlns="http://www.w3.org/2000/svg">
<path d="M15.5 39C13.3611 38.9894 11.6268 37.2526 11.6056 35.1H19.3556C19.3597 35.6214 19.2609 36.1384 19.065 36.621C18.5567 37.7949 17.5185 38.6511 16.275 38.922H16.2653H16.2363H16.2014H16.1839C15.9588 38.9692 15.7299 38.9953 15.5 39ZM31 33.15H0V29.25L3.875 27.3V16.575C3.77293 13.8238 4.39025 11.0938 5.66525 8.658C6.93439 6.39895 9.10372 4.79481 11.625 4.251V0H19.375V4.251C24.3718 5.4483 27.125 9.8241 27.125 16.575V27.3L31 29.25V33.15Z" fill="white"/>
</svg>
