<svg width="20" height="20" viewBox="0 0 20 20" fill="none" xmlns="http://www.w3.org/2000/svg">
<path fill-rule="evenodd" clip-rule="evenodd" d="M19.995 2.82373C19.9037 1.24892 18.5977 0 17 0H4.00004L3.88342 0.00672773C3.38608 0.0644928 3.00004 0.487164 3.00004 1C3.00004 1.55228 3.44776 2 4.00004 2H17L17.1167 2.00673C17.614 2.06449 18 2.48716 18 3V16L18.0068 16.1166C18.0645 16.614 18.4872 17 19 17C19.5523 17 20 16.5523 20 16V3L19.995 2.82373ZM13 3.99991C14.5977 3.99991 15.9037 5.24883 15.9949 6.82364L16 6.99991V16.9999C16 18.5976 14.7511 19.9036 13.1763 19.9948L13 19.9999H3C1.40232 19.9999 0.0963391 18.751 0.00509269 17.1762L0 16.9999V6.99991C0 5.40223 1.24892 4.09625 2.82373 4.005L3 3.99991H13ZM14.0001 12.7622L10.7683 16.6404C10.4187 17.0599 9.80477 17.1165 9.38594 16.7896L9.29296 16.7073L7.00006 14.4152L3.41406 18.0002H13.0001C13.5129 18.0002 13.9356 17.6142 13.9933 17.1168L14.0001 17.0002V12.7622ZM13.0001 5.99987H3.00012C2.48729 5.99987 2.06462 6.38591 2.00685 6.88325L2.00012 6.99987V16.5839L6.29302 12.2928C6.6535 11.9323 7.22073 11.9045 7.61302 12.2096L7.70723 12.2928L9.93212 14.5169L14.0001 9.63587V6.99987C14.0001 6.48703 13.6141 6.06436 13.1167 6.00659L13.0001 5.99987ZM6 8.49996C6 7.67153 5.32843 6.99996 4.5 6.99996C3.67157 6.99996 3 7.67153 3 8.49996C3 9.32838 3.67157 9.99996 4.5 9.99996C5.32843 9.99996 6 9.32838 6 8.49996Z" fill="#979797"/>
</svg>
