<svg width="60" height="60" viewBox="0 0 60 60" fill="none" xmlns="http://www.w3.org/2000/svg">
<circle cx="30" cy="30" r="30" fill="#101820"/>
<path fill-rule="evenodd" clip-rule="evenodd" d="M39.6875 38.4375C40.3779 38.4375 40.9375 38.9971 40.9375 39.6875C40.9375 40.3779 40.3779 40.9375 39.6875 40.9375H17.1875C16.4971 40.9375 15.9375 40.3779 15.9375 39.6875C15.9375 38.9971 16.4971 38.4375 17.1875 38.4375H39.6875ZM21.3035 30.0536L35.0535 16.3036C35.5041 15.853 36.2132 15.8183 36.7035 16.1996L36.8213 16.3036L40.5713 20.0536C41.0219 20.5042 41.0566 21.2133 40.6753 21.7036L40.5713 21.8214L26.8213 35.5714C26.6259 35.7667 26.3726 35.8907 26.1017 35.9267L25.9374 35.9375H22.1874C21.5464 35.9375 21.018 35.455 20.9458 34.8333L20.9374 34.6875V30.9375C20.9374 30.6612 21.0289 30.3944 21.195 30.1775L21.3035 30.0536L35.0535 16.3036L21.3035 30.0536ZM35.9375 18.9553L23.4375 31.4553V33.4376H25.4197L37.9197 20.9376L35.9375 18.9553Z" fill="white"/>
</svg>
