<svg width="40" height="40" viewBox="0 0 40 40" fill="none" xmlns="http://www.w3.org/2000/svg">
<path d="M20 0C8.98 0 0 8.98 0 20C0 31.02 8.98 40 20 40C31.02 40 40 31.02 40 20C40 8.98 31.02 0 20 0ZM20 8.21997C23.66 8.21997 26.64 11.2 26.64 14.86C26.64 18.52 23.66 21.5 20 21.5C16.34 21.5 13.36 18.52 13.36 14.86C13.36 11.2 16.34 8.21997 20 8.21997ZM20 37C15.1 37 10.68 34.92 7.58 31.6C6.9 30.88 6.28 30.08 5.72 29.22C9.52 26.32 14.66 24.66 20 24.66C25.34 24.66 30.48 26.32 34.28 29.22C33.72 30.08 33.1 30.88 32.42 31.6C29.32 34.92 24.9 37 20 37Z" fill="white"/>
</svg>
