<svg width="32" height="32" viewBox="0 0 32 32" fill="none" xmlns="http://www.w3.org/2000/svg">
<path d="M16 0C7.184 0 0 7.184 0 16C0 24.816 7.184 32 16 32C24.816 32 32 24.816 32 16C32 7.184 24.816 0 16 0ZM16 6.57598C18.928 6.57598 21.312 8.95999 21.312 11.888C21.312 14.816 18.928 17.2 16 17.2C13.072 17.2 10.688 14.816 10.688 11.888C10.688 8.95999 13.072 6.57598 16 6.57598ZM16 29.6C12.08 29.6 8.544 27.936 6.064 25.28C5.52 24.704 5.024 24.064 4.576 23.376C7.616 21.056 11.728 19.728 16 19.728C20.272 19.728 24.384 21.056 27.424 23.376C26.976 24.064 26.48 24.704 25.936 25.28C23.456 27.936 19.92 29.6 16 29.6Z" fill="#A0A6B4"/>
</svg>
