<svg width="21" height="21" viewBox="0 0 21 21" fill="none" xmlns="http://www.w3.org/2000/svg">
<path fill-rule="evenodd" clip-rule="evenodd" d="M9.57031 2.19861C13.7124 2.19861 17.0703 5.55647 17.0703 9.69861C17.0703 11.4693 16.4567 13.0966 15.4306 14.3796L18.4929 17.4427C18.8183 17.7681 18.8183 18.2958 18.4929 18.6212C18.1925 18.9216 17.7198 18.9447 17.3929 18.6905L17.3144 18.6212L14.2513 15.5589C12.9683 16.585 11.341 17.1986 9.57031 17.1986C5.42818 17.1986 2.07031 13.8407 2.07031 9.69861C2.07031 5.55647 5.42818 2.19861 9.57031 2.19861ZM9.57031 3.86528C6.34865 3.86528 3.73698 6.47695 3.73698 9.69861C3.73698 12.9203 6.34865 15.5319 9.57031 15.5319C12.792 15.5319 15.4036 12.9203 15.4036 9.69861C15.4036 6.47695 12.792 3.86528 9.57031 3.86528Z" fill="#B4B4B4"/>
</svg>
